<?xml version="1.0" encoding="UTF-8" standalone="no"?>
<svg
   xmlns:dc="http://purl.org/dc/elements/1.1/"
   xmlns:cc="http://creativecommons.org/ns#"
   xmlns:rdf="http://www.w3.org/1999/02/22-rdf-syntax-ns#"
   xmlns:svg="http://www.w3.org/2000/svg"
   xmlns="http://www.w3.org/2000/svg"
   xmlns:sodipodi="http://sodipodi.sourceforge.net/DTD/sodipodi-0.dtd"
   xmlns:inkscape="http://www.inkscape.org/namespaces/inkscape"
   version="1.0"
   width="6000.000000pt"
   height="6000.000000pt"
   viewBox="0 0 6000.000000 6000.000000"
   preserveAspectRatio="xMidYMid meet"
   id="svg3001"
   inkscape:version="0.48.4 r9939"
   sodipodi:docname="dogecoin-6000.svg">
  <defs
     id="defs3015" />
  <sodipodi:namedview
     pagecolor="#ffffff"
     bordercolor="#666666"
     borderopacity="1"
     objecttolerance="10"
     gridtolerance="10"
     guidetolerance="10"
     inkscape:pageopacity="0"
     inkscape:pageshadow="2"
     inkscape:window-width="1920"
     inkscape:window-height="1017"
     id="namedview3013"
     showgrid="false"
     inkscape:zoom="0.062933333"
     inkscape:cx="7788.5975"
     inkscape:cy="4639.464"
     inkscape:window-x="-8"
     inkscape:window-y="-8"
     inkscape:window-maximized="1"
     inkscape:current-layer="svg3001" />
  <metadata
     id="metadata3003">
Created by potrace 1.11, written by Peter Selinger 2001-2013
<rdf:RDF>
  <cc:Work
     rdf:about="">
    <dc:format>image/svg+xml</dc:format>
    <dc:type
       rdf:resource="http://purl.org/dc/dcmitype/StillImage" />
    <dc:title></dc:title>
  </cc:Work>
</rdf:RDF>
</metadata>
  <path
     sodipodi:type="arc"
     style="fill:#ffffff;fill-opacity:1;stroke:none"
     id="path3028"
     sodipodi:cx="3750"
     sodipodi:cy="3781.7795"
     sodipodi:rx="3750"
     sodipodi:ry="3750"
     d="m 7500,3781.7795 a 3750,3750 0 1 1 -7500,0 3750,3750 0 1 1 7500,0 z"
     transform="matrix(0.7779661,0,0,0.77457627,76.271186,77.079141)" />
  <g
     id="g3020">
    <path
       d="m 2930,75.1 c -578.5,13.5 -1134.4,196 -1607.5,527.6 -547.6,383.8 -949,944.9 -1133,1583.8 -92.9,322.6 -129.4,657.7 -108.5,997 33.2,537.1 213.3,1051.5 522.7,1493 339.5,484.4 819.5,856.4 1371,1062.6 385.2,144 794.3,204.5 1209.8,178.9 444.7,-27.5 875.5,-155.9 1262,-376.3 C 4977.4,5239 5401.8,4776.7 5657.2,4223 5859.7,3784 5949.1,3303.1 5919,2814.5 5885.8,2277.4 5705.7,1762.9 5396.3,1321.5 5012.5,773.9 4451.4,372.5 3812.5,188.5 3526.7,106.2 3230.1,68 2930,75.1 z M 3063,225 c 43.2,1.1 88.5,3.1 125,5.5 414.7,28 813.6,147.1 1174.5,350.8 293.2,165.4 555.3,384.3 772,644.7 163.7,196.7 299.5,415.5 403.8,650.5 194.2,437.9 270.9,922.8 222.2,1405.5 -55.3,547.3 -273.3,1066.1 -626,1490 -38.4,46.1 -81.1,94.3 -118.6,133.7 l -9.7,10.3 -0.6,-11.3 c -0.3,-6.1 -1,-24.5 -1.6,-40.7 -0.6,-16.2 -2.2,-54.9 -3.5,-86 -1.4,-31.1 -3.1,-74.1 -4,-95.5 -0.8,-21.5 -1.9,-47.3 -2.5,-57.5 -3.4,-65.6 -5.8,-136.5 -7,-209 -0.6,-33.8 -1.5,-69.4 -2.1,-79 -3.9,-66.5 -21.7,-186.5 -36,-243.2 -3.8,-15.3 -3.7,-17.3 1,-26.1 12.8,-23.7 15.7,-59.6 10.6,-131.7 -1.4,-19.7 -1.3,-22.1 0.2,-29 2.1,-10 2.1,-33.1 -0.1,-46.5 -0.9,-5.5 -3,-15.6 -4.6,-22.5 -2.8,-12.1 -2.9,-13.6 -3.5,-46.5 -2.4,-140 -18.7,-259.6 -50.7,-371 -8.2,-28.7 -17.5,-56.5 -37.3,-111 -11.2,-30.8 -24.6,-68.4 -29.8,-83.5 -38.8,-112.7 -61,-198.8 -69.2,-268 -5.6,-48.1 -13.2,-84.6 -26.4,-126.5 -2.7,-8.8 -5.2,-17.6 -5.4,-19.5 -0.8,-6 0.2,11.3 2.3,40 10.8,150.7 6.4,329 -12,485 -41.3,348.6 -153.9,637 -335,858 -42.7,52.2 -94.4,105.5 -146.3,150.8 -64,56 -139.1,108.6 -217.2,152.2 -25.1,14 -78.7,40.7 -105,52.4 -141.6,62.7 -296.8,102.6 -448,115 -51.1,4.2 -17.6,4.1 -1000.5,4 -863.7,0 -940.1,-0.1 -946.7,-1.6 -26.2,-6 -39.7,-25.1 -45.9,-65.3 -1.8,-11.5 -1.9,-24.1 -1.9,-314 0,-314.1 0,-311.8 4.1,-340 4.3,-30.1 13.4,-51.1 24.8,-57.3 2.9,-1.6 18.3,-1.7 207.1,-2.2 l 204,-0.5 0.3,-125.9 c 0.2,-99.3 0.5,-126.2 1.5,-126.8 0.9,-0.6 0.9,-0.8 0,-0.8 -1,0 -1.3,-149.2 -1.3,-742.8 l 0,-742.7 -212.3,-0.3 c -207,-0.4 -212.3,-0.4 -215.3,-2.3 -5.9,-3.6 -10.2,-12.3 -12.5,-25.6 -1,-5.2 -1.2,-85.8 -1.3,-339.8 0,-183.2 -0.2,-306.4 -0.5,-273.9 l -0.6,59.1 -10.5,9.7 c -25.6,23.7 -60.4,65 -95.9,113.8 -85.5,117.7 -133,225.2 -176.9,400.3 -18.2,72.4 -31.9,139.6 -57.2,280.5 -5,27.7 -9.3,50.6 -9.5,50.8 -0.2,0.2 -10.6,-9.5 -23.2,-21.5 -60.9,-58.5 -140.3,-130.9 -140.3,-128 0,0.5 150.3,141.8 159.8,150.3 l 3.4,3 -2.7,14.9 c -2.2,11.9 -3.5,16.6 -6.5,22.5 -6.2,12.3 -18.8,41.4 -25.7,58.9 -17.6,45.1 -34.3,101.3 -45.8,154.1 -2,9 -3.8,16.6 -4,16.8 -0.1,0.2 -12.8,-1.7 -28.1,-4.2 -169.9,-27.6 -305.3,-44.9 -423.4,-54 -40.8,-3.2 -85.3,-5.8 -91,-5.4 -2.5,0.2 118,16.6 267.8,36.4 149.8,19.9 272.5,36.3 272.7,36.6 0.2,0.2 -1.2,9.1 -3.1,19.8 -6.6,37.1 -12.6,82.3 -15.6,116.4 -1.1,13.3 -1.5,14.9 -3.3,15.7 -1.1,0.5 -10.3,2.9 -20.5,5.4 -68.8,17.1 -168.2,46.2 -275.3,80.6 -56,18 -134.2,44.1 -135.2,45.1 -0.7,0.7 -0.2,0.8 1.3,0.3 18.7,-5.6 429.7,-120.4 430,-120 0.3,0.3 0,9.1 -0.7,19.7 -0.6,10.6 -1.6,29.6 -2.1,42.2 -0.5,12.6 -1.1,23 -1.2,23.1 -0.2,0.1 -5.9,2.8 -12.8,5.9 -6.9,3.2 -52.1,25.7 -100.5,50.1 -112.4,56.6 -167.7,83.4 -252.7,122.6 -19.6,9 -35.5,16.5 -35.3,16.7 0.2,0.2 90.5,-39.9 200.7,-89.1 l 200.3,-89.6 0.5,42.2 c 0.3,23.2 0.5,42.3 0.5,42.4 0,0.1 -13.1,7.4 -29,16.3 -90.8,50.7 -188.9,109.2 -272,162.2 -22.6,14.4 -59.6,39.2 -57.3,38.5 1,-0.4 82,-45.2 180,-99.7 l 178.3,-99 0.7,4.7 c 0.4,2.7 1.4,17.6 2.3,33.3 0.9,15.7 1.8,31.6 2.1,35.5 l 0.5,7 -111.5,83.5 c -61.3,45.9 -111.3,83.6 -111.1,83.8 0.8,0.9 20.3,-10.5 38,-22.2 38.4,-25.3 87.9,-62.4 161.5,-121 l 23.5,-18.8 1.3,12.9 c 6.5,65.5 13.9,117.9 24.8,176.8 25.9,139.7 81.3,292.2 156,429 l 9.3,17.1 -0.9,27.9 c -2.3,66.2 -9.1,113.4 -22.7,157.5 -13.6,44.1 -36.2,87.2 -63.9,122.1 l -5.3,6.7 6.8,9.8 c 3.7,5.5 11.1,15.7 16.4,22.9 16,21.7 23.3,35.3 27.8,52.1 1.7,6.1 2.2,10.8 2.2,20.9 0,22.8 -3.5,33.9 -22.8,73 -15.6,31.6 -21.9,46.6 -26.5,63.2 -8.2,29.8 -8.8,53.6 -2.3,96.8 2.3,15.4 2.4,19 2,38 -0.6,23.7 -2.5,38.5 -8.8,67.5 -12.3,56.5 -14.5,69.7 -15.8,94.5 -0.8,14.9 -1.2,16.9 -5.1,29 -8,24.6 -21.9,59.2 -53,132.6 -19,44.6 -43.7,103.1 -45.1,106.7 -0.8,2.1 -1.4,1.7 -10.2,-7.5 C 948.4,4868.3 903.8,4818 865.5,4772 702.7,4576.4 566.9,4357.9 463.3,4125 274.4,3700.6 195.9,3232.4 235.1,2764.5 c 33.2,-397.4 151.2,-780.8 347.2,-1128 165.4,-293.2 384.3,-555.3 644.7,-772 220.7,-183.6 469.1,-332.2 736,-440 239.2,-96.6 495.8,-159.9 754,-186 115.3,-11.6 233.9,-16.2 346,-13.5 z"
       id="path3007"
       style="fill:#000000;stroke:none"
       inkscape:connector-curvature="0" />
    <path
       d="m 2063.8,516 c -7.9,1.4 -14.7,4 -19.4,7.6 -2.4,1.9 -4.8,3.4 -5.2,3.4 -0.5,0 -2.7,1.6 -4.9,3.5 -19.6,16.8 -30.2,73.2 -37.3,199.5 -0.5,10.2 -2.4,48 -4,84 -7.8,172 -12.6,225 -26.5,296 -2.9,15.1 -7,37.8 -9,50.5 -10.8,68.2 -14.2,85.1 -22.2,109.7 -10.2,31.9 -27.1,65.1 -49.1,96.5 l -6.5,9.3 -185.1,0.2 c -101.8,0.2 258.8,0.5 801.4,0.8 l 986.5,0.5 13.5,2.3 c 78.3,13.1 171.1,40 262,76.1 8.5,3.4 15.9,6.6 16.3,7 0.5,0.5 -0.1,2.7 -1.2,5 -1.2,2.2 -1.8,4.1 -1.4,4.1 0.5,-0.1 3.3,-1.4 6.3,-2.9 l 5.4,-2.8 9.1,3.7 c 16.5,6.9 46.7,20.6 70.1,31.8 22,10.5 69.3,34.7 70.4,36.1 0.3,0.3 3,1.7 6,3.1 3,1.4 6,3 6.7,3.6 0.6,0.6 2.6,1.7 4.5,2.4 1.8,0.8 3.5,1.7 3.8,2 0.9,1.2 18.7,11 19.9,11 0.6,0 1.1,0.3 1.1,0.7 0,0.5 2.6,2.1 5.7,3.8 3.2,1.6 6.4,3.6 7.1,4.2 0.7,0.7 2,1.3 2.8,1.3 0.8,0 1.4,0.4 1.4,0.9 0,0.5 1,1.3 2.3,1.7 1.2,0.4 2.4,1 2.7,1.3 0.9,1.2 15.7,10.1 16.8,10.1 0.6,0 1.2,0.4 1.4,0.8 0.4,1 33.6,22.2 34.8,22.2 0.4,0 1,0.4 1.2,0.8 0.4,1.1 15.5,11.2 16.7,11.2 0.5,0 1.1,0.4 1.3,0.9 0.2,0.4 8.9,6.8 19.3,14.1 75.8,53.1 140.6,107.9 207.5,175.6 56.5,57.2 101.4,110.4 147.5,174.9 99.8,139.5 178.3,305.5 226.6,478.9 1.8,6.5 3.5,11.4 3.6,10.9 0.2,-0.5 -2.4,-10.3 -5.7,-21.8 -15.6,-54 -33.2,-105.2 -53.7,-156.5 l -7.4,-18.5 -3,-26.5 c -12.7,-112.7 -29.2,-185 -57.1,-250.9 -7.6,-17.8 -20.3,-43 -23,-45.5 -5.2,-4.8 -20.8,-42.8 -62.8,-153.1 -39.2,-102.9 -51.1,-133.2 -61.4,-156.9 l -5.7,-13 6,-24.5 c 3.3,-13.5 7.6,-32.3 9.5,-41.6 2,-9.4 4,-18.8 4.6,-21 0.9,-4.2 21.2,-109.6 23.5,-122.5 9.5,-53.7 10.4,-136.5 2.4,-235 -3.5,-44 -10.3,-107.2 -16.5,-153 -10.2,-76.6 -28.7,-156.8 -49.6,-215.5 -17.6,-49.3 -40.1,-93.5 -60.6,-118.8 -13.3,-16.5 -37.3,-31.2 -66.2,-40.8 -27.6,-9.1 -52.4,-12.5 -85.4,-11.6 -23,0.5 -36.2,2.4 -56.5,7.8 -46.3,12.3 -82.2,39.6 -98.5,75 -3.2,6.9 -4.3,8.2 -17.8,19.9 -33,28.8 -62.6,60.4 -101,107.5 -6.5,8 -16,18 -24.9,26.2 -19.4,17.7 -65.4,64.2 -111.6,112.8 -43.5,45.8 -71.2,73.3 -96.3,95.6 -9.6,8.6 -26.8,25.1 -38.2,36.8 l -20.6,21.3 -9.4,2.4 c -21.6,5.5 -58.4,10.4 -79,10.4 -18.5,0 -26,-1.3 -47.3,-8.5 -32.1,-10.8 -42.5,-12.1 -90,-11.2 -68,1.2 -121.2,6.8 -285,29.7 -100.3,14 -164.8,22.1 -205.5,25.8 -9.9,0.9 -19.8,-0.7 -104.6,-16.3 -105.7,-19.5 -160.6,-26.9 -214,-29.1 l -15.9,-0.6 -7.6,-4.7 c -7.3,-4.4 -7.6,-4.8 -6.2,-6.6 2.6,-3.4 5.6,-10.7 7.3,-18 l 1.7,-7 18.4,-0.5 18.4,-0.5 -7,-1.8 c -31.3,-8.2 -64.2,-35.1 -97.7,-80 -10.9,-14.7 -23.7,-33.7 -34.1,-50.8 -9,-14.7 -12.5,-23.9 -32.7,-86 -38.9,-119.6 -43.1,-130.6 -61.5,-160.9 -17,-28.2 -48,-65.7 -73.5,-89.1 -6,-5.5 -11.8,-12.2 -17,-19.6 -24.7,-34.9 -52.6,-60.4 -82.3,-75.4 -4.3,-2.2 -12,-6.8 -17,-10.3 -20.8,-14.4 -45.3,-23.1 -70.7,-25.1 -4.1,-0.3 -9.3,-0.7 -11.5,-0.9 -2.2,-0.2 -6.1,0 -8.7,0.4 z"
       id="path3009"
       style="fill:#000000;stroke:none"
       inkscape:connector-curvature="0" />
    <path
       d="m 2844,3019.3 0,869.8 179.3,-0.4 c 177.5,-0.3 179.3,-0.3 192.2,-2.4 39.6,-6.5 74,-18 111,-37.2 106.7,-55.3 201.4,-159.9 267.5,-295.5 64.6,-132.2 100.5,-285.8 109,-465.1 2.2,-45.5 1.2,-127.6 -2,-175.5 -11.6,-170.7 -51.1,-324.3 -117.1,-455 -58.1,-115.3 -136.6,-211.1 -220.4,-269.2 -28.4,-19.6 -62.2,-35.5 -82.7,-38.8 -4.5,-0.7 -75.9,-0.9 -221.7,-0.8 l -215.1,0.3 0,869.8 z"
       id="path3011"
       style="fill:#000000;stroke:none"
       inkscape:connector-curvature="0" />
  </g>
</svg>
