<?xml version="1.0" encoding="utf-8"?>
<!-- Generator: Adobe Illustrator 13.0.0, SVG Export Plug-In . SVG Version: 6.00 Build 14948)  -->
<!DOCTYPE svg PUBLIC "-//W3C//DTD SVG 1.1//EN" "http://www.w3.org/Graphics/SVG/1.1/DTD/svg11.dtd">
<svg version="1.1" id="Layer_1" xmlns="http://www.w3.org/2000/svg" xmlns:xlink="http://www.w3.org/1999/xlink" x="0px" y="0px"
	 width="1280px" height="1024px" viewBox="0 0 1280 1024" enable-background="new 0 0 1280 1024" xml:space="preserve">
<g>
	<defs>
		<rect id="SVGID_1_" x="125.534" y="141.733" width="1068.006" height="755.157"/>
	</defs>
	<clipPath id="SVGID_2_">
		<use xlink:href="#SVGID_1_"  overflow="visible"/>
	</clipPath>
	<g clip-path="url(#SVGID_2_)">
		<linearGradient id="SVGID_3_" gradientUnits="userSpaceOnUse" x1="125.5337" y1="519.3125" x2="1193.54" y2="519.3125">
			<stop  offset="0" style="stop-color:#E0F2F8"/>
			<stop  offset="0.5" style="stop-color:#96D7E7"/>
			<stop  offset="1" style="stop-color:#306CB1"/>
		</linearGradient>
		<rect x="125.534" y="141.733" fill="url(#SVGID_3_)" width="1068.006" height="755.157"/>
		<g>
			
				<linearGradient id="SVGID_4_" gradientUnits="userSpaceOnUse" x1="-49.9004" y1="562.3633" x2="1360.334" y2="562.3633" gradientTransform="matrix(0.986 -0.1665 -0.1665 -0.986 -5.2535 1229.108)">
				<stop  offset="0" style="stop-color:#E0F2F8"/>
				<stop  offset="0.5" style="stop-color:#96D7E7"/>
				<stop  offset="1" style="stop-color:#2175B7"/>
			</linearGradient>
			<path fill="url(#SVGID_4_)" d="M1238.127,422.544C923.798,485.51,671.626,538.451,448.639,582.54
				c-206.112,40.745-402.838,77.562-595.005,110.663c0.856,5.077,1.713,10.151,2.571,15.226
				c192.267-32.47,389.573-65.792,596.677-100.771c224.024-37.832,477.94-80.716,793.865-134.071
				C1243.875,456.573,1241.001,439.559,1238.127,422.544z"/>
			
				<linearGradient id="SVGID_5_" gradientUnits="userSpaceOnUse" x1="-49.9023" y1="612.7705" x2="1360.335" y2="612.7705" gradientTransform="matrix(0.986 -0.1665 -0.1665 -0.986 -5.2535 1229.108)">
				<stop  offset="0" style="stop-color:#E0F2F8"/>
				<stop  offset="0.5" style="stop-color:#96D7E7"/>
				<stop  offset="1" style="stop-color:#2175B7"/>
			</linearGradient>
			<path fill="url(#SVGID_5_)" d="M1225.197,345.975c-312.029,77.407-561.429,145.396-782.92,198.881
				c-204.557,49.389-400.47,91.45-592.501,125.514c0.858,5.074,1.716,10.148,2.572,15.223
				c192.117-33.427,388.568-71.984,594.17-115.616c222.48-47.215,473.749-105.184,787.298-172.959
				C1230.942,380.005,1228.071,362.99,1225.197,345.975z"/>
			
				<linearGradient id="SVGID_6_" gradientUnits="userSpaceOnUse" x1="-49.9009" y1="663.1777" x2="1360.334" y2="663.1777" gradientTransform="matrix(0.986 -0.1665 -0.1665 -0.986 -5.2535 1229.108)">
				<stop  offset="0" style="stop-color:#E0F2F8"/>
				<stop  offset="0.5" style="stop-color:#96D7E7"/>
				<stop  offset="1" style="stop-color:#2175B7"/>
			</linearGradient>
			<path fill="url(#SVGID_6_)" d="M1212.264,269.405c-309.833,91.894-556.272,174.859-776.352,237.773
				c-202.92,57.998-398.073,105.33-589.992,140.354c0.856,5.074,1.713,10.146,2.57,15.223
				C40.481,628.37,236.136,584.56,440.154,532.297c221.013-56.625,469.447-129.619,780.73-211.849
				C1218.012,303.436,1215.139,286.418,1212.264,269.405z"/>
			
				<linearGradient id="SVGID_7_" gradientUnits="userSpaceOnUse" x1="-49.9009" y1="713.5859" x2="1360.334" y2="713.5859" gradientTransform="matrix(0.986 -0.1665 -0.1665 -0.986 -5.2535 1229.108)">
				<stop  offset="0" style="stop-color:#E0F2F8"/>
				<stop  offset="0.5" style="stop-color:#96D7E7"/>
				<stop  offset="1" style="stop-color:#2175B7"/>
			</linearGradient>
			<path fill="url(#SVGID_7_)" d="M1199.333,192.835C891.59,299.272,648.281,397.116,429.548,469.492
				c-201.216,66.564-395.657,119.217-587.484,155.2c0.856,5.077,1.713,10.149,2.571,15.223
				C36.52,604.576,231.43,555.471,433.791,494.613c219.622-66.061,465.035-153.999,774.162-250.735
				C1205.081,226.866,1202.207,209.849,1199.333,192.835z"/>
			
				<linearGradient id="SVGID_8_" gradientUnits="userSpaceOnUse" x1="-49.9009" y1="763.9941" x2="1360.334" y2="763.9941" gradientTransform="matrix(0.986 -0.1665 -0.1665 -0.986 -5.2535 1229.108)">
				<stop  offset="0" style="stop-color:#E0F2F8"/>
				<stop  offset="0.5" style="stop-color:#96D7E7"/>
				<stop  offset="1" style="stop-color:#2175B7"/>
			</linearGradient>
			<path fill="url(#SVGID_8_)" d="M1186.401,116.266C880.664,237.317,640.636,349.922,423.185,431.811
				C223.741,506.902,29.965,564.9-161.793,601.855c0.858,5.076,1.714,10.148,2.57,15.224
				c191.803-36.307,386.019-90.731,586.65-160.147c218.297-75.542,460.532-178.322,767.595-289.624
				C1192.15,150.295,1189.275,133.279,1186.401,116.266z"/>
			
				<linearGradient id="SVGID_9_" gradientUnits="userSpaceOnUse" x1="-49.9014" y1="814.4004" x2="1360.334" y2="814.4004" gradientTransform="matrix(0.986 -0.1665 -0.1665 -0.986 -5.2535 1229.108)">
				<stop  offset="0" style="stop-color:#E0F2F8"/>
				<stop  offset="0.5" style="stop-color:#96D7E7"/>
				<stop  offset="1" style="stop-color:#2175B7"/>
			</linearGradient>
			<path fill="url(#SVGID_9_)" d="M1173.47,39.695C869.66,175.442,633.044,302.678,416.821,394.13
				C219.206,477.688,26.063,541.09-165.65,579.021c0.857,5.074,1.713,10.148,2.57,15.223
				C28.662,556.965,222.222,497.17,421.062,419.25c217.034-85.071,455.942-202.567,761.029-328.511
				C1179.218,73.726,1176.344,56.709,1173.47,39.695z"/>
			
				<linearGradient id="SVGID_10_" gradientUnits="userSpaceOnUse" x1="-49.9009" y1="864.8057" x2="1360.3359" y2="864.8057" gradientTransform="matrix(0.986 -0.1665 -0.1665 -0.986 -5.2535 1229.108)">
				<stop  offset="0" style="stop-color:#E0F2F8"/>
				<stop  offset="0.5" style="stop-color:#96D7E7"/>
				<stop  offset="1" style="stop-color:#2175B7"/>
			</linearGradient>
			<path fill="url(#SVGID_10_)" d="M1160.541-36.873C858.598,113.655,625.499,255.378,410.458,356.449
				C214.722,448.417,22.181,517.271-169.507,556.184c0.856,5.075,1.714,10.148,2.57,15.225
				c191.702-38.258,384.644-103.47,581.636-189.84c215.827-94.652,451.281-226.732,754.46-367.4
				C1166.286-2.844,1163.413-19.86,1160.541-36.873z"/>
		</g>
		<g>
			<path fill="none" stroke="#88CAE2" stroke-width="0.75" d="M296.473-21.897c0,0-74.853,196.439-125.388,404.474
				c-25.349,104.416-42.69,216.503-13.053,310.349C190.838,796.41,291.303,888.86,478.736,960.879
				c443.243,170.311,632.623,375.259,697.042,538.723c62.298,158.536,21.077,281.917,21.077,281.917"/>
			<path fill="none" stroke="#88CAE2" stroke-width="0.75" d="M304.518-45.436c0,0-74.767,196.186-125.954,406.111
				c-25.667,105.355-43.61,218.858-14.675,315.078c31.938,105.731,131.267,201.725,317.389,277.684
				c440.002,179.564,628.247,388.167,691.879,553.831c61.581,160.761,20.304,284.199,20.304,284.199"/>
			<path fill="none" stroke="#88CAE2" stroke-width="0.75" d="M312.553-68.979c0,0-74.672,195.931-126.501,407.753
				c-25.994,106.298-44.524,221.208-16.296,319.806C200.817,766.556,298.99,866.09,483.82,945.991
				c436.729,188.821,623.872,401.078,686.719,568.935c60.854,162.996,19.521,286.489,19.521,286.489"/>
			<path fill="none" stroke="#88CAE2" stroke-width="0.75" d="M320.597-92.524c0,0-74.586,195.676-127.067,409.389
				c-26.312,107.246-45.43,223.556-17.905,324.55c30.181,110.218,127.193,213.271,310.737,297.133
				c433.446,198.033,619.499,413.989,681.559,584.044c60.134,165.221,18.739,288.773,18.739,288.773"/>
			<path fill="none" stroke="#88CAE2" stroke-width="0.75" d="M328.643-116.063c0,0-74.509,195.425-127.625,411.026
				c-26.64,108.186-46.344,225.906-19.526,329.281c29.312,112.461,125.137,219.026,307.42,306.858
				c430.119,207.242,615.107,426.903,676.388,599.155c59.41,167.451,17.959,291.058,17.959,291.058"/>
			<path fill="none" stroke="#88CAE2" stroke-width="0.75" d="M336.686-139.608c0,0-74.422,195.172-128.19,412.671
				c-26.957,109.125-47.245,228.262-21.138,334.007c28.434,114.706,123.071,224.778,304.097,316.587
				c426.786,216.432,610.729,439.814,671.229,614.262c58.69,169.681,17.184,293.345,17.184,293.345"/>
			<path fill="none" stroke="#88CAE2" stroke-width="0.75" d="M344.729-163.154c0,0-74.335,194.925-128.754,414.316
				c-27.276,110.066-48.142,230.61-22.751,338.737c27.575,116.958,120.995,230.53,300.774,326.323
				c423.413,225.597,606.344,452.718,666.065,629.358c57.964,171.912,16.401,295.634,16.401,295.634"/>
			<path fill="none" stroke="#88CAE2" stroke-width="0.75" d="M352.773-186.7c0,0-74.249,194.672-129.313,415.952
				c-27.601,111.014-49.035,232.972-24.376,343.484c26.721,119.198,118.912,236.25,297.456,336.04
				c420.033,234.737,601.971,465.629,660.904,644.47c57.238,174.138,15.621,297.916,15.621,297.916"/>
			<path fill="none" stroke="#88CAE2" stroke-width="0.75" d="M360.811-210.236c0,0-74.157,194.409-129.871,417.587
				c-27.919,111.955-49.914,235.325-25.99,348.211C230.821,677.01,321.77,797.527,499.082,901.333
				c416.634,243.858,597.588,478.541,655.752,659.577c56.503,176.369,14.836,300.198,14.836,300.198"/>
			<path fill="none" stroke="#88CAE2" stroke-width="0.75" d="M368.854-233.781c0,0-74.076,194.164-130.425,419.229
				c-28.247,112.896-50.809,237.678-27.611,352.94c25.02,123.7,114.708,247.677,290.807,355.501
				c413.204,252.966,593.204,491.453,650.589,674.681c55.776,178.603,14.056,302.485,14.056,302.485"/>
			<path fill="none" stroke="#88CAE2" stroke-width="0.75" d="M376.898-257.326c0,0-73.99,193.911-130.99,420.876
				c-28.567,113.834-51.695,240.038-29.223,357.673c24.174,125.94,112.591,253.371,287.482,365.222
				c409.774,262.04,588.82,504.366,645.428,689.792c55.051,180.83,13.273,304.771,13.273,304.771"/>
			<path fill="none" stroke="#88CAE2" stroke-width="0.75" d="M384.942-280.864c0,0-73.904,193.657-131.549,422.502
				c-28.891,114.785-52.568,242.408-30.841,362.416c23.325,128.193,110.474,259.054,284.156,374.945
				c406.328,271.083,584.439,517.279,640.267,704.898c54.317,183.063,12.494,307.064,12.494,307.064"/>
			<path fill="none" stroke="#88CAE2" stroke-width="0.75" d="M392.987-304.409c0,0-73.827,193.405-132.114,424.147
				c-29.21,115.723-53.445,244.765-32.455,367.14C250.91,617.318,336.77,751.596,509.25,871.556
				c402.862,280.112,580.055,530.191,635.107,720.006c53.589,185.292,11.718,309.344,11.718,309.344"/>
			<path fill="none" stroke="#88CAE2" stroke-width="0.75" d="M401.029-327.956c0,0-73.737,193.159-132.669,425.792
				c-29.534,116.673-54.322,247.125-34.073,371.879C255.934,602.4,340.499,740.095,511.795,864.121
				c399.381,289.11,575.666,543.089,629.944,735.106c52.863,187.52,10.936,311.625,10.936,311.625"/>
			<path fill="none" stroke="#88CAE2" stroke-width="0.75" d="M409.067-351.491c0,0-73.647,192.896-133.228,427.427
				c-29.854,117.613-55.191,249.481-35.695,376.606c20.814,134.94,104.083,276.019,274.192,404.133
				c395.9,298.082,571.285,556.009,624.79,750.211c52.121,189.755,10.146,313.918,10.146,313.918"/>
			<path fill="none" stroke="#88CAE2" stroke-width="0.75" d="M417.111-375.038c0,0-73.568,192.645-133.785,429.063
				c-30.179,118.562-56.063,251.856-37.313,381.346c19.983,137.201,101.937,281.656,270.867,413.861
				c392.406,307.026,566.9,568.914,619.63,765.319c51.394,191.979,9.362,316.202,9.362,316.202"/>
			<path fill="none" stroke="#88CAE2" stroke-width="0.75" d="M425.154-398.583c0,0-73.479,192.4-134.349,430.708
				c-30.5,119.493-56.922,254.22-38.925,386.081c19.158,139.444,99.8,287.26,267.54,423.583
				c388.899,315.956,562.519,581.826,614.468,780.424c50.661,194.215,8.591,318.489,8.591,318.489"/>
			<path fill="none" stroke="#88CAE2" stroke-width="0.75" d="M433.198-422.129c0,0-73.395,192.147-134.905,432.351
				c-30.826,120.444-57.796,256.587-40.546,390.812c18.317,141.71,97.655,292.866,264.216,433.311
				c385.407,324.841,558.124,594.742,609.308,795.533c49.924,196.441,7.81,320.775,7.81,320.775"/>
			<path fill="none" stroke="#88CAE2" stroke-width="0.75" d="M441.244-445.667c0,0-73.309,191.892-135.473,433.988
				c-31.143,121.383-58.654,258.95-42.159,395.539c17.493,143.96,95.503,298.474,260.894,443.04
				c381.901,333.712,553.739,607.649,604.145,810.643c49.189,198.674,7.026,323.06,7.026,323.06"/>
			<path fill="none" stroke="#88CAE2" stroke-width="0.75" d="M449.287-469.213c0,0-73.229,191.649-136.03,435.624
				c-31.468,122.333-59.519,261.324-43.776,400.276c16.671,146.229,93.359,304.054,257.569,452.774
				c378.391,342.55,549.348,620.558,598.983,825.741c48.453,200.902,6.244,325.35,6.244,325.35"/>
			<path fill="none" stroke="#88CAE2" stroke-width="0.75" d="M457.323-492.756c0,0-73.134,191.393-136.586,437.267
				C288.95,67.783,260.369,208.205,275.34,349.524c15.856,148.479,91.213,309.617,254.251,462.496
				c374.869,351.383,544.965,633.464,593.823,840.85c47.717,203.127,5.462,327.632,5.462,327.632"/>
			<path fill="none" stroke="#88CAE2" stroke-width="0.75" d="M465.368-516.294c0,0-73.05,191.132-137.151,438.906
				c-32.107,124.209-61.225,266.064-47.01,409.739c15.032,150.739,89.066,315.179,250.926,472.226
				c371.379,360.166,540.571,646.375,588.662,855.954c46.982,205.359,4.689,329.919,4.689,329.919"/>
			<path fill="none" stroke="#88CAE2" stroke-width="0.75" d="M473.412-539.84c0,0-72.971,190.888-137.708,440.549
				c-32.435,125.152-62.089,268.437-48.632,414.47c14.21,152.998,86.925,320.723,247.603,481.952
				c367.871,368.939,536.188,659.286,583.5,871.065c46.249,207.587,3.907,332.203,3.907,332.203"/>
			<path fill="none" stroke="#88CAE2" stroke-width="0.75" d="M481.455-563.384c0,0-72.883,190.633-138.271,442.192
				C310.43,4.9,280.247,149.615,292.941,298.014c13.388,155.257,84.772,326.263,244.277,491.675
				c364.362,377.688,531.796,672.2,578.345,886.166c45.506,209.819,3.12,334.495,3.12,334.495"/>
			<path fill="none" stroke="#88CAE2" stroke-width="0.75" d="M489.499-586.931c0,0-72.797,190.388-138.83,443.829
				C317.583-16.059,286.87,130.086,298.808,280.84c12.575,157.524,82.625,331.791,240.952,501.402
				c360.853,386.433,527.404,685.112,573.186,901.278c44.77,212.047,2.344,336.777,2.344,336.777"/>
		</g>
		<g>
			<path fill="none" stroke="#79BADC" stroke-width="0.5" d="M12.179,1059.566c0,0,35.5-207.197,97.833-412.007
				c31.301-102.79,73.396-208.11,146.656-273.823c80.893-72.4,214.417-100.879,412.421-67.524
				c468.236,78.885,735.548-1.21,874.167-109.163c134.29-104.791,161.575-231.981,161.575-231.981"/>
			<path fill="none" stroke="#79BADC" stroke-width="0.5" d="M7.132,1083.922c0,0,35.442-206.935,98.176-413.701
				C136.813,566.46,179.11,459.616,252.974,391.5c81.287-74.776,215.636-106.883,414.516-77.586
				c470.157,69.267,738.347-14.55,877.412-124.796C1679.706,82.045,1706.97-45.223,1706.97-45.223"/>
			<path fill="none" stroke="#79BADC" stroke-width="0.5" d="M2.07,1108.28c0,0,35.396-206.668,98.542-415.396
				c31.7-104.737,74.209-213.092,148.676-283.615c81.674-77.156,216.83-112.898,416.604-87.653
				c472.048,59.635,741.148-27.889,880.653-140.426c135.314-109.364,162.561-236.707,162.561-236.707"/>
			<path fill="none" stroke="#79BADC" stroke-width="0.5" d="M-2.985,1132.644c0,0,35.341-206.404,98.889-417.094
				c31.91-105.716,74.625-215.575,149.704-288.519c82.056-79.53,218.007-118.896,418.686-97.713
				c473.909,50.032,743.951-41.231,883.897-156.061C1684.02,61.612,1711.239-65.815,1711.239-65.815"/>
			<path fill="none" stroke="#79BADC" stroke-width="0.5" d="M-8.032,1157.002c0,0,35.278-206.149,99.239-418.788
				c32.107-106.69,75.035-218.063,150.716-293.415c82.449-81.905,219.163-124.896,420.778-107.773
				c475.731,40.409,746.741-54.582,887.136-171.698c136.336-113.935,163.537-241.439,163.537-241.439"/>
			<path fill="none" stroke="#79BADC" stroke-width="0.5" d="M-13.087,1181.363c0,0,35.224-205.888,99.59-420.488
				c32.311-107.662,75.457-220.551,151.731-298.306c82.839-84.287,220.311-130.902,422.865-117.841
				c477.539,30.803,749.544-67.924,890.377-187.33c136.854-116.219,164.038-243.801,164.038-243.801"/>
			<path fill="none" stroke="#79BADC" stroke-width="0.5" d="M-18.141,1205.729c0,0,35.175-205.632,99.942-422.195
				C114.315,674.9,157.68,560.506,234.548,480.337c83.242-86.66,221.452-136.91,424.958-127.914
				c479.298,21.197,752.334-81.263,893.612-202.952c137.365-118.511,164.529-246.169,164.529-246.169"/>
			<path fill="none" stroke="#79BADC" stroke-width="0.5" d="M-23.195,1230.092c0,0,35.119-205.371,100.293-423.888
				c32.717-109.616,76.312-225.516,153.764-308.109C314.511,409.07,453.43,355.2,657.91,360.126
				c481.034,11.61,755.134-94.604,896.855-218.587c137.873-120.798,165.017-248.535,165.017-248.535"/>
			<path fill="none" stroke="#79BADC" stroke-width="0.5" d="M-28.25,1254.442c0,0,35.065-205.097,100.644-425.577
				c32.921-110.588,76.751-227.988,154.781-313c84.06-91.396,223.672-148.879,429.137-148.038
				c482.746,2.026,757.928-107.95,900.104-234.215c138.375-123.092,165.504-250.894,165.504-250.894"/>
			<path fill="none" stroke="#79BADC" stroke-width="0.5" d="M-33.305,1278.804c0,0,35.01-204.845,101.002-427.272
				c33.119-111.566,77.179-230.471,155.791-317.896c84.473-93.766,224.762-154.872,431.223-158.104
				c484.429-7.562,760.728-121.298,903.349-249.847c138.886-125.383,165.995-253.262,165.995-253.262"/>
			<path fill="none" stroke="#79BADC" stroke-width="0.5" d="M-38.357,1303.166c0,0,34.954-204.583,101.354-428.977
				c33.32-112.534,77.617-232.953,156.811-322.791c84.886-96.126,225.837-160.85,433.308-168.166
				c486.091-17.118,763.52-134.646,906.589-265.479c139.395-127.671,166.484-255.629,166.484-255.629"/>
			<path fill="none" stroke="#79BADC" stroke-width="0.5" d="M-43.408,1327.525c0,0,34.9-204.321,101.7-430.664
				c33.525-113.52,78.07-235.437,157.83-327.695c85.3-98.497,226.906-166.82,435.392-178.229
				c487.727-26.655,766.317-147.992,909.832-281.111c139.901-129.968,166.98-257.998,166.98-257.998"/>
			<path fill="none" stroke="#79BADC" stroke-width="0.5" d="M-48.46,1351.888c0,0,34.838-204.065,102.05-432.368
				c33.729-114.487,78.515-237.912,158.847-332.586c85.724-100.856,227.957-172.771,437.478-188.297
				c489.337-36.189,769.112-161.338,913.078-296.744c140.407-132.256,167.47-260.353,167.47-260.353"/>
			<path fill="none" stroke="#79BADC" stroke-width="0.5" d="M-53.517,1376.249c0,0,34.791-203.807,102.409-434.063
				c33.932-115.474,78.961-240.39,159.863-337.49c86.142-103.219,228.999-178.736,439.567-198.362
				c490.917-45.708,771.899-174.675,916.316-312.371c140.914-134.545,167.957-262.719,167.957-262.719"/>
			<path fill="none" stroke="#79BADC" stroke-width="0.5" d="M-58.571,1400.6c0,0,34.735-203.533,102.76-435.756
				c34.135-116.441,79.412-242.859,160.873-342.383c86.572-105.583,230.034-184.674,441.663-208.427
				c492.482-55.202,774.696-188.025,919.561-327.996c141.411-136.843,168.444-265.09,168.444-265.09"/>
			<path fill="none" stroke="#79BADC" stroke-width="0.5" d="M-63.625,1424.965c0,0,34.673-203.277,103.111-437.45
				c34.339-117.423,79.869-245.347,161.889-347.286c87.007-107.951,231.054-190.62,443.749-218.492
				c494.027-64.683,777.49-201.367,922.806-343.628c141.92-139.131,168.936-267.457,168.936-267.457"/>
			<path fill="none" stroke="#79BADC" stroke-width="0.5" d="M-68.68,1449.326c0,0,34.625-203.021,103.464-439.15
				c34.536-118.39,80.331-247.819,162.911-352.186c87.437-110.303,232.066-196.531,445.832-228.553
				c495.551-74.152,780.283-214.712,926.046-359.257c142.426-141.427,169.432-269.82,169.432-269.82"/>
			<path fill="none" stroke="#79BADC" stroke-width="0.5" d="M-73.733,1473.689c0,0,34.57-202.76,103.822-440.848
				c34.738-119.373,80.782-250.305,163.921-357.081c87.865-112.679,233.071-202.448,447.918-238.623
				c497.064-83.575,783.074-228.065,929.293-374.89c142.922-143.717,169.921-272.184,169.921-272.184"/>
			<path fill="none" stroke="#79BADC" stroke-width="0.5" d="M-78.782,1498.045c0,0,34.515-202.494,104.166-442.545
				c34.944-120.344,81.248-252.774,164.939-361.969c88.301-115.04,234.07-208.373,450.005-248.688
				c498.564-92.999,785.87-241.41,932.539-390.527c143.423-146.012,170.408-274.549,170.408-274.549"/>
			<path fill="none" stroke="#79BADC" stroke-width="0.5" d="M-83.836,1522.411c0,0,34.46-202.25,104.517-444.239
				c35.147-121.328,81.711-255.258,165.956-366.873C275.385,593.89,421.701,497.034,638.736,452.54
				c500.035-102.394,788.653-254.757,935.773-406.152c143.925-148.306,170.9-276.917,170.9-276.917"/>
			<path fill="none" stroke="#79BADC" stroke-width="0.5" d="M-88.897,1546.767c0,0,34.411-201.979,104.875-445.937
				C51.328,978.533,98.164,843.103,182.95,729.056C272.14,609.297,418.996,508.91,637.137,460.24
				c501.5-111.79,791.443-268.099,939.016-421.782c144.427-150.599,171.389-279.282,171.389-279.282"/>
			<path fill="none" stroke="#79BADC" stroke-width="0.5" d="M-93.947,1571.123c0,0,34.352-201.71,105.224-447.635
				c35.552-123.268,82.653-260.206,167.986-376.665c89.632-122.123,237.03-226.027,456.275-278.882
				c502.964-121.126,794.23-281.448,942.258-437.411c144.925-152.894,171.886-281.644,171.886-281.644"/>
			<path fill="none" stroke="#79BADC" stroke-width="0.5" d="M-99,1595.485c0,0,34.293-201.462,105.58-449.331
				c35.749-124.244,83.116-262.688,168.996-381.563c90.074-124.486,238.005-231.888,458.362-288.947
				c504.405-130.465,797.028-294.794,945.503-453.046c145.429-155.186,172.375-284.009,172.375-284.009"/>
			<path fill="none" stroke="#79BADC" stroke-width="0.5" d="M-104.055,1619.85c0,0,34.241-201.197,105.93-451.036
				c35.953-125.216,83.593-265.158,170.021-386.457c90.515-126.854,238.969-237.756,460.445-299.009
				c505.835-139.783,799.815-308.148,948.748-468.673c145.924-157.484,172.861-286.38,172.861-286.38"/>
			<path fill="none" stroke="#79BADC" stroke-width="0.5" d="M-109.109,1644.213c0,0,34.191-200.942,106.282-452.729
				c36.151-126.204,84.061-267.646,171.037-391.36c90.969-129.215,239.934-243.604,462.532-309.076
				c507.261-149.093,802.601-321.496,951.993-484.305c146.423-159.774,173.356-288.741,173.356-288.741"/>
		</g>
		<g>
			<path fill="none" stroke="#CAEAF4" d="M-149.185,1340.872c0,0,1588.967-505.505,1699.292-562.532"/>
			<path fill="none" stroke="#CAEAF4" d="M-133.972,1368.298c0,0,1556.766-582.136,1662.421-646.948"/>
			<path fill="none" stroke="#CAEAF4" d="M-116.988,1394.711c0,0,1521.021-656.782,1621.48-729.024"/>
			<path fill="none" stroke="#CAEAF4" d="M-98.297,1420.03c0,0,1481.854-729.29,1576.614-808.575"/>
			<path fill="none" stroke="#CAEAF4" d="M-77.964,1444.178c0,0,1439.391-799.515,1527.979-885.422"/>
			<path fill="none" stroke="#CAEAF4" d="M-56.058,1467.082c0,0,1393.759-867.318,1475.731-959.392"/>
			<path fill="none" stroke="#CAEAF4" d="M-32.65,1488.672c0,0,1345.097-932.564,1420.04-1030.325"/>
			<path fill="none" stroke="#CAEAF4" d="M-7.816,1508.886c0,0,1293.542-995.138,1361.078-1098.075"/>
			<path fill="none" stroke="#CAEAF4" d="M18.368,1527.659c0,0,1239.237-1054.912,1299.024-1162.493"/>
			<path fill="none" stroke="#CAEAF4" d="M45.823,1544.938c0,0,1182.333-1111.785,1234.065-1223.456"/>
			<path fill="none" stroke="#CAEAF4" d="M74.466,1560.667c0,0,1122.982-1165.65,1166.392-1280.835"/>
			<path fill="none" stroke="#CAEAF4" d="M104.213,1574.802c0,0,1061.337-1216.416,1096.197-1334.525"/>
			<path fill="none" stroke="#CAEAF4" d="M134.982,1587.297c0,0,997.555-1263.997,1023.678-1384.424"/>
			<path fill="none" stroke="#CAEAF4" d="M166.687,1598.112c0,0,931.795-1308.313,949.036-1430.44"/>
			<path fill="none" stroke="#CAEAF4" d="M199.236,1607.213c0,0,864.221-1349.292,872.477-1472.493"/>
			<path fill="none" stroke="#CAEAF4" d="M232.544,1614.569c0,0,794.995-1386.872,794.207-1510.516"/>
			<path fill="none" stroke="#CAEAF4" d="M266.523,1620.156c0,0,724.283-1420.998,714.434-1544.45"/>
			<path fill="none" stroke="#CAEAF4" d="M301.082,1623.952c0,0,652.249-1451.622,633.362-1574.247"/>
			<path fill="none" stroke="#CAEAF4" d="M336.13,1625.939c0,0,579.061-1478.702,551.208-1599.868"/>
			<path fill="none" stroke="#CAEAF4" d="M371.579,1626.105c0,0,504.887-1502.206,468.18-1621.287"/>
			<path fill="none" stroke="#CAEAF4" d="M407.338,1624.44c0,0,429.892-1522.106,384.482-1638.484"/>
			<path fill="none" stroke="#CAEAF4" d="M443.318,1620.942c0,0,354.243-1538.386,300.33-1651.455"/>
			<path fill="none" stroke="#CAEAF4" d="M479.431,1615.609c0,0,278.107-1551.034,215.926-1660.199"/>
			<path fill="none" stroke="#CAEAF4" d="M515.586,1608.447c0,0,201.65-1560.045,131.479-1664.731"/>
			<path fill="none" stroke="#CAEAF4" d="M551.698,1599.46c0,0,125.036-1565.42,47.191-1665.071"/>
			<path fill="none" stroke="#CAEAF4" d="M587.679,1588.664c0,0,48.432-1567.172-36.735-1661.251"/>
			<path fill="none" stroke="#CAEAF4" d="M623.444,1576.076c0,0-28.006-1565.316-120.104-1653.315"/>
			<path fill="none" stroke="#CAEAF4" d="M658.911,1561.713c0,0-104.115-1559.873-202.72-1641.308"/>
			<path fill="none" stroke="#CAEAF4" d="M693.995,1545.598c0,0-179.735-1550.872-284.392-1625.288"/>
			<path fill="none" stroke="#CAEAF4" d="M728.617,1527.761c0,0-254.713-1538.352-364.934-1605.325"/>
			<path fill="none" stroke="#CAEAF4" d="M762.697,1508.229c0,0-328.891-1522.35-444.16-1581.489"/>
			<path fill="none" stroke="#CAEAF4" d="M796.157,1487.037c0,0-402.119-1502.916-521.895-1553.867"/>
			<path fill="none" stroke="#CAEAF4" d="M828.924,1464.222c0,0-474.249-1480.102-597.965-1522.545"/>
			<path fill="none" stroke="#CAEAF4" d="M860.923,1439.826c0,0-545.133-1453.969-672.203-1487.625"/>
			<path fill="none" stroke="#CAEAF4" d="M892.085,1413.891c0,0-614.631-1424.582-744.447-1449.209"/>
			<path fill="none" stroke="#CAEAF4" d="M922.34,1386.465c0,0-682.599-1392.012-814.539-1407.41"/>
			<path fill="none" stroke="#CAEAF4" d="M951.625,1357.592c0,0-748.905-1356.33-882.334-1362.343"/>
			<path fill="none" stroke="#CAEAF4" d="M979.874,1327.326c0,0-813.412-1317.62-947.682-1314.132"/>
			<path fill="none" stroke="#CAEAF4" d="M1007.028,1295.724c0,0-875.994-1275.969-1010.451-1262.909"/>
			<path fill="none" stroke="#CAEAF4" d="M1033.029,1262.84c0,0-936.523-1231.468-1070.506-1208.808"/>
			<path fill="none" stroke="#CAEAF4" d="M1057.819,1228.729c0,0-994.876-1184.208-1127.724-1151.965"/>
			<path fill="none" stroke="#CAEAF4" d="M1081.351,1193.459c0,0-1050.939-1134.295-1181.989-1092.532"/>
			<path fill="none" stroke="#CAEAF4" d="M1103.572,1157.086c0,0-1104.598-1081.829-1233.192-1030.651"/>
			<path fill="none" stroke="#CAEAF4" d="M1124.435,1119.681c0,0-1155.739-1026.923-1281.227-966.481"/>
			<path fill="none" stroke="#CAEAF4" d="M1143.899,1081.306c0,0-1204.263-969.688-1326.002-900.177"/>
			<path fill="none" stroke="#CAEAF4" d="M1161.923,1042.029c0,0-1250.066-910.242-1367.429-831.899"/>
			<path fill="none" stroke="#CAEAF4" d="M1178.471,1001.92c0,0-1293.055-848.704-1405.426-761.81"/>
			<path fill="none" stroke="#CAEAF4" d="M1193.507,961.051c0,0-1333.139-785.203-1439.923-690.078"/>
			<path fill="none" stroke="#CAEAF4" d="M1207.001,919.489c0,0-1370.229-719.861-1470.853-616.868"/>
			<path fill="none" stroke="#CAEAF4" d="M1218.925,877.313c0,0-1404.247-652.817-1498.158-542.355"/>
			<path fill="none" stroke="#CAEAF4" d="M1229.255,834.596c0,0-1435.117-584.205-1521.79-466.711"/>
			<path fill="none" stroke="#CAEAF4" d="M1237.972,791.409c0,0-1462.771-514.16-1541.708-390.111"/>
			<path fill="none" stroke="#CAEAF4" d="M1245.055,747.832c0,0-1487.14-442.828-1557.877-312.73"/>
			<path fill="none" stroke="#CAEAF4" d="M1250.49,703.938c0,0-1508.167-370.352-1570.27-234.743"/>
			<path fill="none" stroke="#CAEAF4" d="M1254.268,659.802c0,0-1525.799-296.876-1578.871-156.326"/>
			<path fill="none" stroke="#CAEAF4" d="M1256.381,615.503c0,0-1539.989-222.554-1583.669-77.658"/>
			<path fill="none" stroke="#CAEAF4" d="M1256.819,571.117c0,0-1550.689-147.535-1584.657,1.086"/>
			<path fill="none" stroke="#CAEAF4" d="M1255.588,526.722c0,0-1557.871-71.976-1581.846,79.726"/>
			<path fill="none" stroke="#CAEAF4" d="M1252.688,482.393c0,0-1561.503,3.97-1575.247,158.087"/>
			<path fill="none" stroke="#CAEAF4" d="M1248.121,438.208c0,0-1561.561,80.141-1564.878,235.996"/>
			<path fill="none" stroke="#CAEAF4" d="M1241.896,394.243c0,0-1558.025,156.382-1550.766,313.279"/>
			<path fill="none" stroke="#CAEAF4" d="M1234.029,350.574c0,0-1550.89,232.528-1532.95,389.763"/>
			<path fill="none" stroke="#CAEAF4" d="M1224.533,307.275c0,0-1540.151,308.419-1511.472,465.28"/>
			<path fill="none" stroke="#CAEAF4" d="M1213.424,264.422c0,0-1525.808,383.893-1486.378,539.659"/>
			<path fill="none" stroke="#CAEAF4" d="M1200.727,222.088c0,0-1507.874,458.786-1457.731,612.733"/>
			<path fill="none" stroke="#CAEAF4" d="M1186.462,180.347c0,0-1486.362,532.932-1425.589,684.344"/>
			<path fill="none" stroke="#CAEAF4" d="M1170.661,139.27c0,0-1461.299,606.167-1390.029,754.326"/>
			<path fill="none" stroke="#CAEAF4" d="M1153.354,98.926c0,0-1432.715,678.331-1351.125,822.523"/>
			<path fill="none" stroke="#CAEAF4" d="M1134.572,59.388c0,0-1400.648,749.255-1308.965,888.786"/>
			<path fill="none" stroke="#CAEAF4" d="M1114.355,20.721c0,0-1365.142,818.779-1263.639,952.964"/>
			<path fill="none" stroke="#CAEAF4" d="M1092.742-17.007c0,0-1326.251,886.742-1215.246,1014.907"/>
			<path fill="none" stroke="#CAEAF4" d="M1069.776-53.732c0,0-1284.035,952.979-1163.889,1074.476"/>
			<path fill="none" stroke="#CAEAF4" d="M1045.504-89.391c0,0-1238.561,1017.334-1109.682,1131.532"/>
			<path fill="none" stroke="#CAEAF4" d="M1019.972-123.922c0,0-1189.903,1079.65-1052.739,1185.949"/>
			<path fill="none" stroke="#CAEAF4" d="M993.231-157.266c0,0-1138.144,1139.771-993.183,1237.59"/>
			<path fill="none" stroke="#CAEAF4" d="M965.336-189.367c0,0-1083.371,1197.542-931.141,1286.344"/>
		</g>
	</g>
</g>
</svg>
